<svg xmlns="http://www.w3.org/2000/svg" xmlns:svgjs="http://svgjs.dev/svgjs" xmlns:xlink="http://www.w3.org/1999/xlink" width="2000" height="1668" version="1.1" viewBox="0 0 2000 1668"><g transform="matrix(1,0,0,1,-0.16304007023256872,0.6753036437246465)"><svg xmlns="http://www.w3.org/2000/svg" xmlns:xlink="http://www.w3.org/1999/xlink" width="2000" height="1668" data-background-color="#ffffff" preserveAspectRatio="xMidYMid meet" viewBox="0 0 296 247"><g id="tight-bounds" transform="matrix(1,0,0,1,0.024129930394423127,-0.09999999999999432)"><svg width="295.952" height="247.2" viewBox="0 0 295.952 247.2"><g><svg width="295.952" height="247.2" viewBox="0 0 295.952 247.2"><g><svg width="295.952" height="247.2" viewBox="0 0 295.952 247.2"><g id="textblocktransform"><svg id="textblock" width="295.952" height="247.2" viewBox="0 0 295.952 247.2"><g><svg width="295.952" height="247.2" viewBox="0 0 295.952 247.2"><g transform="matrix(1,0,0,1,0,0)"><svg width="295.952" height="247.2" data-palette-color="#000000" viewBox="-14.85 -34.95 51.6 43.1"><g id="text-0" class="wordmark-text-0" data-fill-palette-color="primary"><path fill="#fff" d="M-11.05 8.15L-11.05 8.15Q-12.5 8.15-13.5 7.55L-13.5 7.55Q-14.85 6.8-14.85 5.2L-14.85 5.2Q-14.85 3.8-13.95 2.7L-13.95 2.7Q-12.95 1.55-11.65 1.55L-11.65 1.55Q-10.7 1.55-10 2.25L-10 2.25Q-9.4 2.95-9.4 3.65L-9.4 3.65Q-9.4 4.9-10.35 5.7L-10.35 5.7Q-11.15 6.45-12.15 6.45L-12.15 6.45Q-13.1 6.45-13.8 5.75L-13.8 5.75Q-13.5 6.85-11.75 6.85L-11.75 6.85Q-9.1 6.85-5.45 3.3L-5.45 3.3Q-4.1 2-2.58 0.18-1.05-1.65 0.6-4.05L0.6-4.05Q1.7-5.65 2.75-7.23 3.8-8.8 4.9-10.4L4.9-10.4Q1.25-16 1.25-20.95L1.25-20.95Q1.25-23.8 2.55-25.55L2.55-25.55Q3.9-27.3 6-27.3L6-27.3Q9.9-27.3 14.15-21.9L14.15-21.9Q18.95-26.85 23.95-30.3L23.95-30.3Q30.65-34.95 35-34.95L35-34.95Q36.75-34.95 36.75-34.2L36.75-34.2Q36.75-34 36.6-33.7L36.6-33.7Q25.35-13.55 24-6.35L24-6.35Q23.9-5.65 23.83-5.05 23.75-4.45 23.75-3.95L23.75-3.95Q23.75-0.8 26.3-0.8L26.3-0.8Q28.9-0.8 33.6-10.6L33.6-10.6Q33.8-11.1 34.15-11.2L34.15-11.2 34.2-11.2Q34.4-11.2 34.4-10.85L34.4-10.85Q34.4-10.55 34.15-10.05L34.15-10.05Q32.75-7.25 31.93-5.6 31.1-3.95 30.8-3.5L30.8-3.5Q29.4-1.3 28-0.25 26.6 0.8 25.25 0.8L25.25 0.8Q23.55 0.8 22-0.5L22-0.5Q20.05-2.2 19.85-5.25L19.85-5.25Q18.5-13.45 13.9-19.25L13.9-19.25Q12.3-17.55 10.53-15.3 8.75-13.05 6.75-10.25L6.75-10.25Q9.05-6.6 12.03-3.5 15-0.4 18.65 2.1L18.65 2.1Q19 2.3 19 2.6L19 2.6Q19 3 18.7 3L18.7 3Q18.55 3 18.25 2.85L18.25 2.85Q16.85 2 15.35 0.83 13.85-0.35 12.2-1.9L12.2-1.9Q10.35-3.6 8.78-5.38 7.2-7.15 5.85-9L5.85-9Q2.45-4.2 0.48-1.45-1.5 1.3-2.05 2L-2.05 2Q-6.15 7.1-9.1 7.85L-9.1 7.85Q-10.05 8.15-11.05 8.15ZM20.2-8.8L20.2-8.8Q20.5-10.1 21.08-11.53 21.65-12.95 22.5-14.45L22.5-14.45Q26.8-22.1 31.15-28.45L31.15-28.45Q31.65-29.15 31.65-29.7L31.65-29.7Q31.65-30.35 30.7-30.35L30.7-30.35Q27.8-30.35 22.45-26.65L22.45-26.65Q20.3-25.15 18.5-23.63 16.7-22.1 15.15-20.55L15.15-20.55Q18.55-15.45 20.2-8.8ZM5.85-11.75L5.85-11.75Q7.8-14.4 9.53-16.6 11.25-18.8 12.8-20.5L12.8-20.5Q9.65-23.85 7.2-23.85L7.2-23.85Q5.7-23.85 4.85-22.5L4.85-22.5Q3.95-21.1 3.95-18.9L3.95-18.9Q3.95-15.45 5.85-11.75Z" data-fill-palette-color="primary"/></g></svg></g></svg></g></svg></g></svg></g></svg></g></svg><rect width="295.952" height="247.2" fill="none" stroke="none" visibility="hidden"/></g></svg></g></svg>